<?xml version="1.0" encoding="UTF-8"?>
<svg id="Capa_2" xmlns="http://www.w3.org/2000/svg" version="1.1" viewBox="0 0 445.4 297.5">
  <!-- Generator: Adobe Illustrator 29.0.1, SVG Export Plug-In . SVG Version: 2.1.0 Build 192)  -->
  <defs>
    <style>
      .st0 {
        fill: #fff;
      }

      .st1 {
        isolation: isolate;
      }
    </style>
  </defs>
  <path class="st0" d="M254.8,34.4l-9.4,33.5c-.7,2.5,1.2,4.9,3.8,4.9h34.2c1.8,0,3.3-1.2,3.8-2.8l9.4-33.5c.7-2.5-1.2-5-3.8-5h-34.2c-1.8,0-3.3,1.2-3.8,2.8h0ZM207.8,86.4l-18.3,65.1c-.7,2.5,1.2,4.9,3.8,4.9h66.5c1.8,0,3.3-1.2,3.8-2.8l18.3-65.1c.7-2.5-1.2-4.9-3.8-4.9h-66.5c-1.8,0-3.3,1.2-3.8,2.8h0ZM190.5,122l9.4-33.5c.7-2.5-1.2-4.9-3.8-4.9h-34.2c-1.8,0-3.3,1.2-3.8,2.8l-9.4,33.5c-.7,2.5,1.2,4.9,3.8,4.9h34.2c1.8,0,3.3-1.2,3.8-2.8h0ZM233.7,72.9h-66.5c-2.6,0-4.4-2.5-3.8-4.9L181.7,2.8c.5-1.7,2-2.8,3.8-2.8h66.5c2.6,0,4.4,2.5,3.8,4.9l-18.3,65.1c-.5,1.7-2,2.8-3.8,2.8h0Z"/>
  <g class="st1">
    <path class="st0" d="M12,254.8c-2.7-1.1-4.9-2.8-6.6-5-1.6-2.2-2.5-4.9-2.6-8h12.3c.2,1.8.8,3.1,1.8,4,1,.9,2.4,1.4,4,1.4s3.1-.4,4-1.2c1-.8,1.5-1.9,1.5-3.3s-.4-2.1-1.2-2.9c-.8-.8-1.8-1.4-2.9-1.9s-2.8-1.1-4.9-1.7c-3.1-.9-5.6-1.9-7.5-2.8-1.9-.9-3.6-2.3-5-4.2-1.4-1.8-2.1-4.2-2.1-7.2,0-4.4,1.6-7.9,4.8-10.4s7.4-3.7,12.5-3.7,9.4,1.2,12.6,3.7,4.9,6,5.1,10.4h-12.5c0-1.5-.7-2.7-1.7-3.6-1-.9-2.4-1.3-4-1.3s-2.5.4-3.4,1.1c-.9.7-1.3,1.8-1.3,3.2s.7,2.7,2.2,3.6c1.4.9,3.7,1.8,6.7,2.8,3.1,1,5.5,2,7.5,3,1.9.9,3.6,2.3,5,4.1s2.1,4.1,2.1,6.9-.7,5.2-2.1,7.4c-1.4,2.2-3.4,4-6,5.3-2.6,1.3-5.7,2-9.2,2s-6.6-.6-9.3-1.7h.2Z"/>
    <path class="st0" d="M68.7,256l-11.5-15.8v15.8h-11.5v-49.9h11.5v27.6l11.4-15.3h14.2l-15.7,18.9,15.8,18.8h-14.3,0Z"/>
    <path class="st0" d="M88.2,212.6c-1.3-1.2-1.9-2.7-1.9-4.4s.6-3.3,1.9-4.5,2.9-1.8,5-1.8,3.6.6,4.9,1.8,1.9,2.7,1.9,4.5-.6,3.2-1.9,4.4-2.9,1.8-4.9,1.8-3.7-.6-5-1.8ZM98.9,218.3v37.6h-11.5v-37.6h11.5Z"/>
    <path class="st0" d="M118.8,206.1v49.9h-11.5v-49.9h11.5Z"/>
    <path class="st0" d="M138.7,206.1v49.9h-11.5v-49.9h11.5Z"/>
    <path class="st0" d="M148.2,219.7c2-3.7,4.8-6.5,8.5-8.6,3.6-2,7.7-3.1,12.3-3.1s10.4,1.5,14.4,4.5,6.7,7,8,12.1h-12.7c-.9-2-2.3-3.5-4-4.5s-3.7-1.6-5.9-1.6c-3.6,0-6.4,1.2-8.6,3.7-2.2,2.5-3.3,5.8-3.3,9.9s1.1,7.4,3.3,9.9,5.1,3.7,8.6,3.7,4.2-.5,5.9-1.6c1.7-1,3.1-2.5,4-4.5h12.7c-1.3,5.1-4,9.2-8,12.1-4,2.9-8.8,4.4-14.4,4.4s-8.7-1-12.3-3.1c-3.6-2-6.4-4.9-8.5-8.5-2-3.6-3-7.8-3-12.5s1-8.8,3-12.5v.2Z"/>
    <path class="st0" d="M205.7,254.2c-2.9-1.6-5.3-3.8-6.9-6.7-1.7-2.9-2.5-6.3-2.5-10.3s.9-7.3,2.6-10.2c1.7-2.9,4-5.2,7-6.8s6.3-2.4,10-2.4,7,.8,10,2.4,5.3,3.8,7,6.8c1.7,2.9,2.6,6.4,2.6,10.2s-.9,7.3-2.6,10.2c-1.7,2.9-4.1,5.2-7.1,6.8s-6.3,2.4-10,2.4-7-.8-10-2.4h-.1ZM221.3,244.1c1.6-1.6,2.3-3.9,2.3-6.9s-.8-5.3-2.3-6.9c-1.5-1.6-3.4-2.4-5.6-2.4s-4.1.8-5.6,2.4c-1.5,1.6-2.2,3.9-2.2,7s.7,5.3,2.2,6.9c1.5,1.6,3.3,2.4,5.5,2.4s4.1-.8,5.6-2.4h.1Z"/>
    <path class="st0" d="M275,222.2c2.6,2.9,3.9,6.8,3.9,11.8v22h-11.5v-20.4c0-2.5-.7-4.5-2-5.9s-3.1-2.1-5.3-2.1-4,.7-5.3,2.1c-1.3,1.4-2,3.4-2,5.9v20.4h-11.5v-37.6h11.5v5c1.2-1.7,2.7-3,4.7-3.9,2-1,4.2-1.4,6.7-1.4,4.4,0,7.9,1.4,10.6,4.3l.2-.2Z"/>
    <path class="st0" d="M320.4,222.2c2.6,2.9,3.9,6.8,3.9,11.8v22h-11.5v-20.4c0-2.5-.7-4.5-2-5.9s-3.1-2.1-5.3-2.1-4,.7-5.3,2.1c-1.3,1.4-2,3.4-2,5.9v20.4h-11.5v-37.6h11.5v5c1.2-1.7,2.7-3,4.7-3.9,2-1,4.2-1.4,6.7-1.4,4.4,0,7.9,1.4,10.6,4.3l.2-.2Z"/>
    <path class="st0" d="M367.7,239.9h-26.1c.2,2.3.9,4.1,2.3,5.4,1.3,1.2,3,1.9,4.9,1.9,2.9,0,4.9-1.2,6-3.6h12.3c-.6,2.5-1.8,4.7-3.4,6.7s-3.7,3.5-6.2,4.7c-2.5,1.1-5.2,1.7-8.3,1.7s-7-.8-9.9-2.4c-2.9-1.6-5.1-3.8-6.7-6.7s-2.4-6.3-2.4-10.3.8-7.3,2.4-10.3c1.6-2.9,3.8-5.2,6.7-6.7,2.9-1.6,6.2-2.4,9.9-2.4s6.9.8,9.7,2.3c2.8,1.5,5,3.7,6.6,6.5s2.4,6.1,2.4,9.9,0,2.2-.2,3.4h0ZM356.1,233.5c0-2-.7-3.6-2-4.7-1.3-1.2-3-1.8-5.1-1.8s-3.6.6-4.9,1.7c-1.3,1.1-2.1,2.7-2.5,4.8h14.5Z"/>
    <path class="st0" d="M374.1,226.9c1.6-2.9,3.8-5.2,6.7-6.7s6.1-2.4,9.8-2.4,8.7,1.2,11.8,3.7c3.2,2.5,5.3,6,6.2,10.5h-12.3c-1-2.9-3-4.3-6-4.3s-3.8.8-5.1,2.5c-1.3,1.6-1.9,4-1.9,7.1s.6,5.4,1.9,7.1c1.3,1.6,2.9,2.5,5.1,2.5s5-1.4,6-4.3h12.3c-1,4.4-3.1,7.9-6.3,10.4-3.2,2.5-7.1,3.8-11.8,3.8s-7-.8-9.8-2.4-5.1-3.8-6.7-6.7-2.4-6.3-2.4-10.3.8-7.3,2.4-10.3v-.2Z"/>
    <path class="st0" d="M435.8,246.2v9.8h-5.9c-4.2,0-7.4-1-9.8-3.1-2.3-2-3.5-5.4-3.5-10v-15h-4.6v-9.6h4.6v-9.2h11.5v9.2h7.6v9.6h-7.6v15.1c0,1.1.3,1.9.8,2.4s1.4.7,2.7.7h4.2Z"/>
  </g>
</svg>