<?xml version="1.0" encoding="UTF-8"?>
<svg id="Capa_2" xmlns="http://www.w3.org/2000/svg" version="1.1" xmlns:xlink="http://www.w3.org/1999/xlink" viewBox="0 0 149.2 157.5">
  <!-- Generator: Adobe Illustrator 29.0.1, SVG Export Plug-In . SVG Version: 2.1.0 Build 192)  -->
  <defs>
    <style>
      .st0 {
        fill: none;
      }

      .st1 {
        fill: #042254;
      }

      .st2 {
        clip-path: url(#clippath);
      }
    </style>
    <clipPath id="clippath">
      <rect class="st0" width="149.2" height="157.5"/>
    </clipPath>
  </defs>
  <g id="Capa_1-2">
    <g class="st2">
      <path class="st1" d="M106.7,34.4l-9.4,33.5c-.7,2.5,1.2,4.9,3.8,4.9h34.2c1.8,0,3.3-1.2,3.8-2.8l9.4-33.5c.7-2.5-1.2-5-3.8-5h-34.2c-1.8,0-3.3,1.2-3.8,2.8ZM59.7,86.4l-18.3,65.1c-.7,2.5,1.2,4.9,3.8,4.9h66.5c1.8,0,3.3-1.2,3.8-2.8l18.3-65.1c.7-2.5-1.2-4.9-3.8-4.9H63.5c-1.8,0-3.3,1.2-3.8,2.8ZM42.4,122l9.4-33.5c.7-2.5-1.2-4.9-3.8-4.9H13.9c-1.8,0-3.3,1.2-3.8,2.8L.7,119.9c-.7,2.5,1.2,4.9,3.8,4.9h34.2c1.8,0,3.3-1.2,3.8-2.8ZM85.6,72.9H19.1c-2.6,0-4.4-2.5-3.8-4.9L33.6,2.8c.5-1.7,2-2.8,3.8-2.8h66.5c2.6,0,4.4,2.5,3.8,4.9l-18.3,65.1c-.5,1.7-2,2.8-3.8,2.8h0Z"/>
    </g>
  </g>
</svg>