<?xml version="1.0" encoding="UTF-8"?>
<svg id="Capa_2" xmlns="http://www.w3.org/2000/svg" version="1.1" viewBox="0 0 834.5 156.4">
  <!-- Generator: Adobe Illustrator 29.0.1, SVG Export Plug-In . SVG Version: 2.1.0 Build 192)  -->
  <defs>
    <style>
      .st0 {
        fill: #fff;
      }

      .st1 {
        isolation: isolate;
      }
    </style>
  </defs>
  <path class="st0" d="M106.1,34.4l-9.4,33.5c-.7,2.5,1.2,4.9,3.8,4.9h34.2c1.8,0,3.3-1.2,3.8-2.8l9.4-33.5c.7-2.5-1.2-5-3.8-5h-34.2c-1.8,0-3.3,1.2-3.8,2.8h0ZM59.1,86.4l-18.3,65.1c-.7,2.5,1.2,4.9,3.8,4.9h66.5c1.8,0,3.3-1.2,3.8-2.8l18.3-65.1c.7-2.5-1.2-4.9-3.8-4.9H62.9c-1.8,0-3.3,1.2-3.8,2.8ZM41.8,122l9.4-33.5c.7-2.5-1.2-4.9-3.8-4.9H13.3c-1.8,0-3.3,1.2-3.8,2.8L.1,119.9c-.7,2.5,1.2,4.9,3.8,4.9h34.2c1.8,0,3.3-1.2,3.8-2.8h0ZM85,72.9H18.5c-2.6,0-4.4-2.5-3.8-4.9L33,2.8c.5-1.7,2-2.8,3.8-2.8h66.5c2.6,0,4.4,2.5,3.8,4.9l-18.3,65.1c-.5,1.7-2,2.8-3.8,2.8h0Z"/>
  <g class="st1">
    <path class="st0" d="M196.5,116.4c-4-1.8-7.3-4.3-9.7-7.5s-3.5-7.1-3.6-11.5h15.5c.3,3,1.3,5.3,3.1,7s4.5,2.6,7.8,2.6,6-.8,8-2.4c1.9-1.6,2.9-3.8,2.9-6.4s-.6-3.9-2-5.3c-1.3-1.4-3-2.5-4.9-3.3-2-.8-4.6-1.6-8.1-2.6-4.8-1.4-8.5-2.8-11.4-4.1-2.9-1.4-5.5-3.4-7.5-6.1-2.1-2.8-3.1-6.4-3.1-10.9s1.1-8,3.3-11.2c2.1-3.1,5.1-5.6,9-7.3,3.9-1.8,8.3-2.5,13.3-2.5,7.5,0,13.5,1.8,18.2,5.4,4.6,3.6,7.3,8.6,7.8,15.2h-15.9c-.1-2.5-1.3-4.5-3.1-6.1-2-1.6-4.6-2.4-7.8-2.4s-5.1.8-6.8,2.1c-1.8,1.5-2.5,3.5-2.5,6.3s.6,3.5,1.9,4.8,2.9,2.3,4.8,3.1c1.9.8,4.6,1.8,8,2.8,4.6,1.4,8.5,2.8,11.5,4.1,3,1.4,5.5,3.5,7.6,6.3,2.1,2.8,3.3,6.4,3.3,10.9s-1,7.5-3,10.8c-2,3.3-4.9,6-8.8,7.9-3.9,2-8.5,3-13.8,3s-9.7-.9-13.7-2.6h-.3Z"/>
    <path class="st0" d="M282.3,118.3l-19.6-24.4v24.4h-14.5V41.6h14.5v43.6l19.3-24.3h18.9l-25.3,28.8,25.6,28.6h-18.9,0Z"/>
    <path class="st0" d="M309.8,51.5c-1.8-1.6-2.5-3.6-2.5-6s.9-4.4,2.5-6c1.8-1.6,3.8-2.4,6.4-2.4s4.6.8,6.4,2.4c1.8,1.6,2.5,3.6,2.5,6s-.9,4.4-2.5,6c-1.8,1.6-3.8,2.4-6.4,2.4s-4.6-.8-6.4-2.4ZM323.4,60.8v57.4h-14.5v-57.4s14.5,0,14.5,0Z"/>
    <path class="st0" d="M352.2,41.6v76.7h-14.5V41.6s14.5,0,14.5,0Z"/>
    <path class="st0" d="M381,41.6v76.7h-14.5V41.6s14.5,0,14.5,0Z"/>
    <path class="st0" d="M396.6,62.9c3.3-5.6,7.6-10,13.2-13.2s11.8-4.8,18.7-4.8,15.2,2.1,21.3,6.3c6.1,4.1,10.3,9.9,12.8,17.2h-16.7c-1.6-3.5-4-6-7-7.8-3-1.8-6.5-2.6-10.4-2.6s-8,1-11.3,3c-3.3,2-5.9,4.8-7.6,8.4-1.9,3.6-2.8,7.8-2.8,12.7s.9,9,2.8,12.7c1.9,3.6,4.4,6.4,7.6,8.4s7,3,11.3,3,7.4-.9,10.4-2.6,5.4-4.4,7-7.8h16.7c-2.4,7.4-6.6,13.2-12.7,17.3-6,4.1-13.2,6.1-21.3,6.1s-13.2-1.6-18.7-4.8c-5.5-3.1-9.9-7.5-13.2-13.2s-4.8-11.9-4.8-19.1,1.6-13.5,4.8-19.2h-.1Z"/>
    <path class="st0" d="M485.6,115.6c-4.4-2.5-7.9-5.9-10.4-10.4-2.5-4.5-3.8-9.7-3.8-15.5s1.3-11,3.9-15.5,6.1-8,10.7-10.4c4.5-2.5,9.5-3.6,15-3.6s10.5,1.3,15,3.6c4.5,2.5,8,5.9,10.7,10.4,2.6,4.5,3.9,9.7,3.9,15.5s-1.4,11-4,15.5-6.3,8-10.8,10.4c-4.5,2.5-9.7,3.6-15.2,3.6s-10.5-1.3-14.9-3.6h-.1ZM507.9,104.6c2.3-1.3,4.1-3.1,5.5-5.8,1.4-2.5,2.1-5.6,2.1-9.3,0-5.5-1.4-9.7-4.3-12.7-2.9-2.9-6.4-4.4-10.5-4.4s-7.6,1.5-10.4,4.4c-2.8,2.9-4.1,7.1-4.1,12.7s1.4,9.7,4.1,12.7c2.8,2.9,6.1,4.4,10.3,4.4s5.1-.6,7.4-1.9h-.1Z"/>
    <path class="st0" d="M589.5,66.5c4.3,4.3,6.3,10.4,6.3,18.1v33.7h-14.5v-31.7c0-4.5-1.1-8-3.4-10.5-2.3-2.5-5.4-3.6-9.3-3.6s-7.1,1.3-9.5,3.6c-2.3,2.5-3.5,6-3.5,10.5v31.7h-14.5v-57.4h14.5v7.1c1.9-2.5,4.4-4.4,7.4-5.9,3-1.4,6.3-2.1,9.9-2.1,6.9,0,12.4,2.1,16.5,6.5h.1Z"/>
    <path class="st0" d="M658.1,66.5c4.3,4.3,6.3,10.4,6.3,18.1v33.7h-14.5v-31.7c0-4.5-1.1-8-3.4-10.5s-5.4-3.6-9.3-3.6-7.1,1.3-9.5,3.6c-2.3,2.5-3.5,6-3.5,10.5v31.7h-14.5v-57.4h14.5v7.1c1.9-2.5,4.4-4.4,7.4-5.9,3-1.4,6.3-2.1,9.9-2.1,6.9,0,12.4,2.1,16.5,6.5h.1Z"/>
    <path class="st0" d="M731.1,93.9h-42c.4,4.1,1.8,7.4,4.4,9.8,2.5,2.4,5.6,3.5,9.4,3.5,5.4,0,9.3-2.3,11.5-6.9h15.7c-1.6,5.5-4.9,10-9.5,13.7-4.8,3.5-10.5,5.4-17.3,5.4s-10.5-1.3-14.9-3.6c-4.4-2.5-7.8-5.9-10.3-10.4-2.5-4.5-3.6-9.7-3.6-15.5s1.3-11.2,3.6-15.7c2.4-4.5,5.8-7.9,10.2-10.4,4.4-2.4,9.4-3.6,15-3.6s10.4,1.1,14.7,3.5,7.6,5.6,10,10c2.4,4.3,3.6,9.3,3.6,14.9s-.1,3.9-.4,5.6v-.3ZM716.6,84.2c0-3.8-1.4-6.8-4-9-2.6-2.3-5.9-3.4-9.7-3.4s-6.6,1.1-9,3.3c-2.5,2.1-4,5.3-4.5,9h27.3-.1Z"/>
    <path class="st0" d="M742,73.9c2.4-4.5,5.8-7.9,10-10.4s9.2-3.6,14.7-3.6,13,1.8,17.7,5.4c4.6,3.5,7.8,8.5,9.4,15h-15.7c-.9-2.5-2.3-4.4-4.1-5.9-2-1.4-4.4-2.1-7.3-2.1-4.1,0-7.4,1.5-9.9,4.5-2.4,3-3.6,7.3-3.6,12.8s1.3,9.7,3.6,12.7c2.4,3,5.6,4.5,9.9,4.5s9.7-2.6,11.5-7.9h15.7c-1.6,6.3-4.8,11.2-9.4,14.8-4.8,3.6-10.5,5.5-17.7,5.5s-10.4-1.3-14.7-3.6c-4.3-2.5-7.6-5.9-10-10.4-2.4-4.5-3.6-9.7-3.6-15.5s1.3-11.2,3.6-15.5h-.1Z"/>
    <path class="st0" d="M821.5,72.8v27.8c0,1.9.5,3.4,1.4,4.3.9.9,2.5,1.3,4.8,1.3h6.8v12.3h-9.2c-12.3,0-18.3-5.9-18.3-17.8v-27.7h-6.9v-11.9h6.9v-14.2h14.7v14.2h12.9v11.9h-13Z"/>
  </g>
</svg>