<?xml version="1.0" encoding="UTF-8"?>
<svg id="Capa_2" xmlns="http://www.w3.org/2000/svg" version="1.1" viewBox="0 0 383.2 287.5">
  <!-- Generator: Adobe Illustrator 29.0.1, SVG Export Plug-In . SVG Version: 2.1.0 Build 192)  -->
  <defs>
    <style>
      .st0 {
        fill: #fff;
      }
    </style>
  </defs>
  <g id="Capa_1-2">
    <path class="st0" d="M383,20.2c.2,1.6.2,5.9,0,7.5-1.5,10.5-11.6,19.4-22.1,20.2H22.8C-5.1,45.8-8.3,7.9,18.2.7l342.1-.7c10.8.3,21.3,9.6,22.8,20.2h0Z"/>
    <path class="st0" d="M383,140c.2,1.6.2,5.9,0,7.5-1.5,10.6-11.6,19.4-22.1,20.2H22.8c-27.8-2.2-31-40-4.6-47.3l342.1-.7c10.8.3,21.3,9.6,22.8,20.2h0Z"/>
    <path class="st0" d="M383,259.8c.2,1.6.2,5.9,0,7.5-1.5,10.5-11.6,19.4-22.1,20.2H22.8c-27.8-2.1-31-40-4.6-47.3l342.1-.7c10.8.3,21.3,9.6,22.8,20.2h0Z"/>
  </g>
</svg>